#usda 1.0
(
    defaultPrim = "Root"
)

def Xform "Root"
{
    def Mesh "RandomMesh" (
        prepend references = @/Users/malartrebenjamin/Documents/RnD/Jivaro/assets/toy_biplane_idle.usdz@
    )
    {
        int[] faceVertexCounts = [3, 3, 3, 3, 3, 3, 3, 3, 3, 3, 3, 3, 3, 3, 3, 3, 3, 3, 3, 3, 3, 3, 3, 3, 3, 3, 3, 3, 3, 3, 3, 3, 3, 3, 3, 3, 3, 3, 3, 3, 3, 3, 3, 3, 3, 3, 3, 3, 3, 3, 3, 3, 3, 3, 3, 3, 3, 3, 3, 3, 3, 3, 3, 3]
        int[] faceVertexIndices = [0, 2, 1, 2, 3, 1, 2, 4, 3, 4, 5, 3, 4, 6, 5, 6, 7, 5, 6, 8, 7, 8, 9, 7, 8, 10, 9, 10, 11, 9, 10, 12, 11, 12, 13, 11, 12, 14, 13, 14, 15, 13, 14, 16, 15, 16, 17, 15, 16, 18, 17, 18, 19, 17, 18, 20, 19, 20, 21, 19, 20, 22, 21, 22, 23, 21, 22, 24, 23, 24, 25, 23, 24, 26, 25, 26, 27, 25, 26, 28, 27, 28, 29, 27, 28, 30, 29, 30, 31, 29, 30, 32, 31, 32, 33, 31, 32, 34, 33, 34, 35, 33, 34, 36, 35, 36, 37, 35, 36, 38, 37, 38, 39, 37, 38, 40, 39, 40, 41, 39, 40, 42, 41, 42, 43, 41, 42, 44, 43, 44, 45, 43, 44, 46, 45, 46, 47, 45, 46, 48, 47, 48, 49, 47, 48, 50, 49, 50, 51, 49, 50, 52, 51, 52, 53, 51, 52, 54, 53, 54, 55, 53, 54, 56, 55, 56, 57, 55, 56, 58, 57, 58, 59, 57, 58, 60, 59, 60, 61, 59, 60, 62, 61, 62, 63, 61, 62, 64, 63, 64, 65, 63]
        point3f[] points = [(0, 0, 0.81593215), (0, 0, -0.37190968), (1, 0, 0.6861016), (1, 0, -0.31016895), (2, 0, 0.009347522), (2, 0, -0.10379729), (3, 0, 0.5209601), (3, 0, -0.77588034), (4, 0, 0.22068515), (4, 0, -0.05527879), (5, 0, 0.07063487), (5, 0, -0.16027392), (6, 0, 0.7237637), (6, 0, -0.2970221), (7, 0, 0.050602593), (7, 0, -0.4778043), (8, 0, 0.4571619), (8, 0, -0.5199885), (9, 0, 0.44648957), (9, 0, -0.15031153), (10, 0, 0.28594238), (10, 0, -0.8336821), (11, 0, 0.6956374), (11, 0, -0.577776), (12, 0, 0.68116444), (12, 0, -0.33117497), (13, 0, 0.057475273), (13, 0, -0.986883), (14, 0, 0.54239315), (14, 0, -0.0016574161), (15, 0, 0.85619265), (15, 0, -0.02935548), (16, 0, 0.3775504), (16, 0, -0.4896517), (17, 0, 0.57617295), (17, 0, -0.7389587), (18, 0, 0.6793322), (18, 0, -0.53626674), (19, 0, 0.035587702), (19, 0, -0.122506894), (20, 0, 0.97335565), (20, 0, -0.1882758), (21, 0, 0.35131875), (21, 0, -0.6141255), (22, 0, 0.6076115), (22, 0, -0.12593281), (23, 0, 0.55286217), (23, 0, -0.9540285), (24, 0, 0.35692498), (24, 0, -0.8381016), (25, 0, 0.97425234), (25, 0, -0.2590142), (26, 0, 0.2515276), (26, 0, -0.42433587), (27, 0, 0.813048), (27, 0, -0.89791423), (28, 0, 0.24458621), (28, 0, -0.7606173), (29, 0, 0.6948564), (29, 0, -0.45185122), (30, 0, 0.26362026), (30, 0, -0.66550344), (31, 0, 0.11657105), (31, 0, -0.2095623), (32, 0, 0.11367567), (32, 0, -0.54697484)]

        def DistantLight "DistantLight_KdtbIH"
        {
        }
    }
}

